<svg width="136" height="30" viewBox="0 0 136 30" fill="none" xmlns="http://www.w3.org/2000/svg">
<path d="M135.263 30H125.936C123.743 30 121.641 29.13 120.091 27.5835L112.719 20.226V30H103.702V0H112.719V9.72L120.037 2.4165C121.587 0.8685 123.689 0 125.882 0H135.209L120.208 14.9715L135.263 29.9985V30Z" fill="#00EC66"/>
<path d="M78.152 15.7275V21H100.696V30H69.1345V15.417C69.1345 13.2285 70.0047 11.1315 71.5557 9.5835L78.7352 2.4165C80.2847 0.8685 82.3888 0 84.5801 0H100.696V9H84.8927L78.152 15.7275Z" fill="#00EC66"/>
<path d="M44.1679 2.4165L36.9885 9.5835C35.4389 11.13 34.5673 13.2285 34.5673 15.417V30H43.5848V24H57.1111V30H66.1287V0H50.0128C47.82 0 45.7174 0.87 44.1679 2.4165ZM57.1111 15H44.3137L50.3254 9H57.1111V15Z" fill="#00EC66"/>
<path d="M31.5614 0V9H30.0585V14.583C30.0585 16.7715 29.1883 18.8685 27.6373 20.4165L20.4578 27.5835C18.9083 29.1315 16.8042 30 14.6129 30H0V18H9.01754V21H14.3003L21.0409 14.2725V9H7.51462V0H31.5614Z" fill="#00EC66"/>
</svg>
